# Blender v2.80 (sub 75) OBJ File: ''
# www.blender.org
mtllib LOD0.mtl
o Plane
v -1.000000 0.000000 1.000000
v 1.000000 0.000000 1.000000
v -1.000000 0.000000 -1.000000
v 1.000000 0.000000 -1.000000
v -1.000000 0.000000 -0.750000
v -1.000000 0.000000 -0.500000
v -1.000000 0.000000 -0.250000
v -1.000000 0.000000 0.000000
v -1.000000 0.000000 0.250000
v -1.000000 0.000000 0.500000
v -1.000000 0.000000 0.750000
v -0.750000 0.000000 1.000000
v -0.500000 0.000000 1.000000
v -0.250000 0.000000 1.000000
v 0.000000 0.000000 1.000000
v 0.250000 0.000000 1.000000
v 0.500000 0.000000 1.000000
v 0.750000 0.000000 1.000000
v 1.000000 0.000000 0.750000
v 1.000000 0.000000 0.500000
v 1.000000 0.000000 0.250000
v 1.000000 0.000000 0.000000
v 1.000000 0.000000 -0.250000
v 1.000000 0.000000 -0.500000
v 1.000000 0.000000 -0.750000
v 0.750000 0.000000 -1.000000
v 0.500000 0.000000 -1.000000
v 0.250000 0.000000 -1.000000
v 0.000000 0.000000 -1.000000
v -0.250000 0.000000 -1.000000
v -0.500000 0.000000 -1.000000
v -0.750000 0.000000 -1.000000
v -0.750000 0.000000 0.750000
v -0.500000 0.000000 0.750000
v -0.250000 0.000000 0.750000
v 0.000000 0.000000 0.750000
v 0.250000 0.000000 0.750000
v 0.500000 0.000000 0.750000
v 0.750000 0.000000 0.750000
v -0.750000 0.000000 0.500000
v -0.500000 0.000000 0.500000
v -0.250000 0.000000 0.500000
v 0.000000 0.000000 0.500000
v 0.250000 0.000000 0.500000
v 0.500000 0.000000 0.500000
v 0.750000 0.000000 0.500000
v -0.750000 0.000000 0.250000
v -0.500000 0.000000 0.250000
v -0.250000 0.000000 0.250000
v 0.000000 0.000000 0.250000
v 0.250000 0.000000 0.250000
v 0.500000 0.000000 0.250000
v 0.750000 0.000000 0.250000
v -0.750000 0.000000 0.000000
v -0.500000 0.000000 0.000000
v -0.250000 0.000000 0.000000
v 0.000000 0.000000 0.000000
v 0.250000 0.000000 0.000000
v 0.500000 0.000000 0.000000
v 0.750000 0.000000 0.000000
v -0.750000 0.000000 -0.250000
v -0.500000 0.000000 -0.250000
v -0.250000 0.000000 -0.250000
v 0.000000 0.000000 -0.250000
v 0.250000 0.000000 -0.250000
v 0.500000 0.000000 -0.250000
v 0.750000 0.000000 -0.250000
v -0.750000 0.000000 -0.500000
v -0.500000 0.000000 -0.500000
v -0.250000 0.000000 -0.500000
v 0.000000 0.000000 -0.500000
v 0.250000 0.000000 -0.500000
v 0.500000 0.000000 -0.500000
v 0.750000 0.000000 -0.500000
v -0.750000 0.000000 -0.750000
v -0.500000 0.000000 -0.750000
v -0.250000 0.000000 -0.750000
v 0.000000 0.000000 -0.750000
v 0.250000 0.000000 -0.750000
v 0.500000 0.000000 -0.750000
v 0.750000 0.000000 -0.750000
vt 0.125000 0.125000
vt 0.250000 0.125000
vt 0.250000 0.250000
vt 0.125000 0.250000
vt 0.375000 0.125000
vt 0.375000 0.250000
vt 0.500000 0.125000
vt 0.500000 0.250000
vt 0.625000 0.125000
vt 0.625000 0.250000
vt 0.750000 0.125000
vt 0.750000 0.250000
vt 0.875000 0.125000
vt 0.875000 0.250000
vt 0.250000 0.375000
vt 0.125000 0.375000
vt 0.375000 0.375000
vt 0.500000 0.375000
vt 0.625000 0.375000
vt 0.750000 0.375000
vt 0.875000 0.375000
vt 0.250000 0.500000
vt 0.125000 0.500000
vt 0.375000 0.500000
vt 0.500000 0.500000
vt 0.625000 0.500000
vt 0.750000 0.500000
vt 0.875000 0.500000
vt 0.250000 0.625000
vt 0.125000 0.625000
vt 0.375000 0.625000
vt 0.500000 0.625000
vt 0.625000 0.625000
vt 0.750000 0.625000
vt 0.875000 0.625000
vt 0.250000 0.750000
vt 0.125000 0.750000
vt 0.375000 0.750000
vt 0.500000 0.750000
vt 0.625000 0.750000
vt 0.750000 0.750000
vt 0.875000 0.750000
vt 0.250000 0.875000
vt 0.125000 0.875000
vt 0.375000 0.875000
vt 0.500000 0.875000
vt 0.625000 0.875000
vt 0.750000 0.875000
vt 0.875000 0.875000
vt 0.000000 0.000000
vt 0.125000 0.000000
vt 0.000000 0.125000
vt 0.250000 0.000000
vt 0.375000 0.000000
vt 0.500000 0.000000
vt 0.625000 0.000000
vt 0.750000 0.000000
vt 0.875000 0.000000
vt 1.000000 0.000000
vt 1.000000 0.125000
vt 1.000000 0.250000
vt 1.000000 0.375000
vt 1.000000 0.500000
vt 1.000000 0.625000
vt 1.000000 0.750000
vt 1.000000 0.875000
vt 1.000000 1.000000
vt 0.875000 1.000000
vt 0.750000 1.000000
vt 0.625000 1.000000
vt 0.500000 1.000000
vt 0.375000 1.000000
vt 0.250000 1.000000
vt 0.125000 1.000000
vt 0.000000 0.875000
vt 0.000000 1.000000
vt 0.000000 0.750000
vt 0.000000 0.625000
vt 0.000000 0.500000
vt 0.000000 0.375000
vt 0.000000 0.250000
vn 0.0000 1.0000 0.0000
usemtl None
s off
f 33/1/1 34/2/1 41/3/1 40/4/1
f 34/2/1 35/5/1 42/6/1 41/3/1
f 35/5/1 36/7/1 43/8/1 42/6/1
f 36/7/1 37/9/1 44/10/1 43/8/1
f 37/9/1 38/11/1 45/12/1 44/10/1
f 38/11/1 39/13/1 46/14/1 45/12/1
f 40/4/1 41/3/1 48/15/1 47/16/1
f 41/3/1 42/6/1 49/17/1 48/15/1
f 42/6/1 43/8/1 50/18/1 49/17/1
f 43/8/1 44/10/1 51/19/1 50/18/1
f 44/10/1 45/12/1 52/20/1 51/19/1
f 45/12/1 46/14/1 53/21/1 52/20/1
f 47/16/1 48/15/1 55/22/1 54/23/1
f 48/15/1 49/17/1 56/24/1 55/22/1
f 49/17/1 50/18/1 57/25/1 56/24/1
f 50/18/1 51/19/1 58/26/1 57/25/1
f 51/19/1 52/20/1 59/27/1 58/26/1
f 52/20/1 53/21/1 60/28/1 59/27/1
f 54/23/1 55/22/1 62/29/1 61/30/1
f 55/22/1 56/24/1 63/31/1 62/29/1
f 56/24/1 57/25/1 64/32/1 63/31/1
f 57/25/1 58/26/1 65/33/1 64/32/1
f 58/26/1 59/27/1 66/34/1 65/33/1
f 59/27/1 60/28/1 67/35/1 66/34/1
f 61/30/1 62/29/1 69/36/1 68/37/1
f 62/29/1 63/31/1 70/38/1 69/36/1
f 63/31/1 64/32/1 71/39/1 70/38/1
f 64/32/1 65/33/1 72/40/1 71/39/1
f 65/33/1 66/34/1 73/41/1 72/40/1
f 66/34/1 67/35/1 74/42/1 73/41/1
f 68/37/1 69/36/1 76/43/1 75/44/1
f 69/36/1 70/38/1 77/45/1 76/43/1
f 70/38/1 71/39/1 78/46/1 77/45/1
f 71/39/1 72/40/1 79/47/1 78/46/1
f 72/40/1 73/41/1 80/48/1 79/47/1
f 73/41/1 74/42/1 81/49/1 80/48/1
f 1/50/1 12/51/1 33/1/1 11/52/1
f 12/51/1 13/53/1 34/2/1 33/1/1
f 13/53/1 14/54/1 35/5/1 34/2/1
f 14/54/1 15/55/1 36/7/1 35/5/1
f 15/55/1 16/56/1 37/9/1 36/7/1
f 16/56/1 17/57/1 38/11/1 37/9/1
f 17/57/1 18/58/1 39/13/1 38/11/1
f 18/58/1 2/59/1 19/60/1 39/13/1
f 39/13/1 19/60/1 20/61/1 46/14/1
f 46/14/1 20/61/1 21/62/1 53/21/1
f 53/21/1 21/62/1 22/63/1 60/28/1
f 60/28/1 22/63/1 23/64/1 67/35/1
f 67/35/1 23/64/1 24/65/1 74/42/1
f 74/42/1 24/65/1 25/66/1 81/49/1
f 81/49/1 25/66/1 4/67/1 26/68/1
f 80/48/1 81/49/1 26/68/1 27/69/1
f 79/47/1 80/48/1 27/69/1 28/70/1
f 78/46/1 79/47/1 28/70/1 29/71/1
f 77/45/1 78/46/1 29/71/1 30/72/1
f 76/43/1 77/45/1 30/72/1 31/73/1
f 75/44/1 76/43/1 31/73/1 32/74/1
f 5/75/1 75/44/1 32/74/1 3/76/1
f 6/77/1 68/37/1 75/44/1 5/75/1
f 7/78/1 61/30/1 68/37/1 6/77/1
f 8/79/1 54/23/1 61/30/1 7/78/1
f 9/80/1 47/16/1 54/23/1 8/79/1
f 10/81/1 40/4/1 47/16/1 9/80/1
f 11/52/1 33/1/1 40/4/1 10/81/1
